<mxfile host="app.diagrams.net" modified="2023-12-24T23:27:06.759Z" agent="Mozilla/5.0 (Windows NT 10.0; Win64; x64) AppleWebKit/537.36 (KHTML, like Gecko) Chrome/120.0.0.0 Safari/537.36" etag="YtpDGYx0_NoCRqLhLHwe" version="22.1.11" type="device">
  <diagram name="Page-1" id="9VoICfcUxU52cl-_yIwJ">
    <mxGraphModel dx="769" dy="658" grid="0" gridSize="10" guides="1" tooltips="1" connect="1" arrows="1" fold="1" page="1" pageScale="1" pageWidth="827" pageHeight="1169" math="0" shadow="0">
      <root>
        <mxCell id="0" />
        <mxCell id="1" parent="0" />
        <mxCell id="_YE2wtCMG6X1sGb84S5I-3" style="edgeStyle=orthogonalEdgeStyle;rounded=0;orthogonalLoop=1;jettySize=auto;html=1;exitX=0;exitY=0.263;exitDx=0;exitDy=0;exitPerimeter=0;dashed=1;" parent="1" source="_YE2wtCMG6X1sGb84S5I-1" target="_YE2wtCMG6X1sGb84S5I-2" edge="1">
          <mxGeometry relative="1" as="geometry">
            <Array as="points">
              <mxPoint x="255" y="171" />
              <mxPoint x="255" y="170" />
            </Array>
          </mxGeometry>
        </mxCell>
        <mxCell id="_YE2wtCMG6X1sGb84S5I-1" value="React JS Single Page Application" style="shape=cube;whiteSpace=wrap;html=1;boundedLbl=1;backgroundOutline=1;darkOpacity=0.05;darkOpacity2=0.1;size=10;flipV=0;flipH=1;" parent="1" vertex="1">
          <mxGeometry x="70" y="150" width="130" height="80" as="geometry" />
        </mxCell>
        <mxCell id="_YE2wtCMG6X1sGb84S5I-17" style="edgeStyle=orthogonalEdgeStyle;rounded=0;orthogonalLoop=1;jettySize=auto;html=1;exitX=0;exitY=0;exitDx=10;exitDy=80;exitPerimeter=0;dashed=1;" parent="1" source="_YE2wtCMG6X1sGb84S5I-2" target="_YE2wtCMG6X1sGb84S5I-6" edge="1">
          <mxGeometry relative="1" as="geometry" />
        </mxCell>
        <mxCell id="_YE2wtCMG6X1sGb84S5I-2" value="API" style="shape=cube;whiteSpace=wrap;html=1;boundedLbl=1;backgroundOutline=1;darkOpacity=0.05;darkOpacity2=0.1;size=10;flipV=0;flipH=1;" parent="1" vertex="1">
          <mxGeometry x="310" y="150" width="130" height="80" as="geometry" />
        </mxCell>
        <mxCell id="_YE2wtCMG6X1sGb84S5I-5" style="edgeStyle=orthogonalEdgeStyle;rounded=0;orthogonalLoop=1;jettySize=auto;html=1;exitX=0;exitY=0.263;exitDx=0;exitDy=0;exitPerimeter=0;dashed=1;entryX=0;entryY=0;entryDx=0;entryDy=70;entryPerimeter=0;" parent="1" target="_YE2wtCMG6X1sGb84S5I-1" edge="1">
          <mxGeometry relative="1" as="geometry">
            <mxPoint x="310" y="220" as="sourcePoint" />
            <mxPoint x="200" y="221" as="targetPoint" />
            <Array as="points">
              <mxPoint x="255" y="220" />
              <mxPoint x="255" y="221" />
            </Array>
          </mxGeometry>
        </mxCell>
        <mxCell id="_YE2wtCMG6X1sGb84S5I-6" value="Database" style="shape=datastore;whiteSpace=wrap;html=1;" parent="1" vertex="1">
          <mxGeometry x="440" y="330" width="70" height="70" as="geometry" />
        </mxCell>
        <mxCell id="_YE2wtCMG6X1sGb84S5I-9" value="SpringerNature" style="shape=cube;whiteSpace=wrap;html=1;boundedLbl=1;backgroundOutline=1;darkOpacity=0.05;darkOpacity2=0.1;size=10;flipV=0;flipH=1;" parent="1" vertex="1">
          <mxGeometry x="130" y="360" width="130" height="80" as="geometry" />
        </mxCell>
        <mxCell id="_YE2wtCMG6X1sGb84S5I-10" value="SemanticScholar" style="shape=cube;whiteSpace=wrap;html=1;boundedLbl=1;backgroundOutline=1;darkOpacity=0.05;darkOpacity2=0.1;size=10;flipV=0;flipH=1;" parent="1" vertex="1">
          <mxGeometry x="290" y="360" width="130" height="80" as="geometry" />
        </mxCell>
        <mxCell id="_YE2wtCMG6X1sGb84S5I-13" value="HTTP&lt;br&gt;requests" style="text;html=1;strokeColor=none;fillColor=none;align=center;verticalAlign=middle;whiteSpace=wrap;rounded=0;" parent="1" vertex="1">
          <mxGeometry x="220" y="140" width="60" height="30" as="geometry" />
        </mxCell>
        <mxCell id="_YE2wtCMG6X1sGb84S5I-14" value="HTTP&lt;br&gt;response" style="text;html=1;strokeColor=none;fillColor=none;align=center;verticalAlign=middle;whiteSpace=wrap;rounded=0;" parent="1" vertex="1">
          <mxGeometry x="220" y="190" width="60" height="30" as="geometry" />
        </mxCell>
        <mxCell id="_YE2wtCMG6X1sGb84S5I-15" value="Database connection" style="text;html=1;strokeColor=none;fillColor=none;align=center;verticalAlign=middle;whiteSpace=wrap;rounded=0;" parent="1" vertex="1">
          <mxGeometry x="440" y="250" width="60" height="30" as="geometry" />
        </mxCell>
        <mxCell id="_YE2wtCMG6X1sGb84S5I-20" style="edgeStyle=orthogonalEdgeStyle;rounded=0;orthogonalLoop=1;jettySize=auto;html=1;exitX=1;exitY=1;exitDx=0;exitDy=0;exitPerimeter=0;entryX=0.762;entryY=-0.012;entryDx=0;entryDy=0;entryPerimeter=0;dashed=1;" parent="1" source="_YE2wtCMG6X1sGb84S5I-2" target="_YE2wtCMG6X1sGb84S5I-9" edge="1">
          <mxGeometry relative="1" as="geometry">
            <Array as="points">
              <mxPoint x="310" y="260" />
              <mxPoint x="161" y="260" />
            </Array>
          </mxGeometry>
        </mxCell>
        <mxCell id="_YE2wtCMG6X1sGb84S5I-21" style="edgeStyle=orthogonalEdgeStyle;rounded=0;orthogonalLoop=1;jettySize=auto;html=1;exitX=0;exitY=0;exitDx=70;exitDy=80;exitPerimeter=0;entryX=0.138;entryY=-0.025;entryDx=0;entryDy=0;entryPerimeter=0;dashed=1;" parent="1" source="_YE2wtCMG6X1sGb84S5I-2" target="_YE2wtCMG6X1sGb84S5I-10" edge="1">
          <mxGeometry relative="1" as="geometry">
            <Array as="points">
              <mxPoint x="402" y="230" />
            </Array>
          </mxGeometry>
        </mxCell>
        <mxCell id="_YE2wtCMG6X1sGb84S5I-23" style="edgeStyle=orthogonalEdgeStyle;rounded=0;orthogonalLoop=1;jettySize=auto;html=1;exitX=0;exitY=0;exitDx=60;exitDy=0;exitPerimeter=0;entryX=0.615;entryY=1;entryDx=0;entryDy=0;entryPerimeter=0;dashed=1;" parent="1" source="_YE2wtCMG6X1sGb84S5I-10" target="_YE2wtCMG6X1sGb84S5I-2" edge="1">
          <mxGeometry relative="1" as="geometry" />
        </mxCell>
        <mxCell id="_YE2wtCMG6X1sGb84S5I-24" style="edgeStyle=orthogonalEdgeStyle;rounded=0;orthogonalLoop=1;jettySize=auto;html=1;exitX=0;exitY=0;exitDx=60;exitDy=0;exitPerimeter=0;entryX=0.762;entryY=1.025;entryDx=0;entryDy=0;entryPerimeter=0;dashed=1;" parent="1" source="_YE2wtCMG6X1sGb84S5I-9" target="_YE2wtCMG6X1sGb84S5I-2" edge="1">
          <mxGeometry relative="1" as="geometry" />
        </mxCell>
        <mxCell id="_YE2wtCMG6X1sGb84S5I-25" value="HTTP&lt;br&gt;requests" style="text;html=1;strokeColor=none;fillColor=none;align=center;verticalAlign=middle;whiteSpace=wrap;rounded=0;" parent="1" vertex="1">
          <mxGeometry x="220" y="240" width="60" height="30" as="geometry" />
        </mxCell>
        <mxCell id="_YE2wtCMG6X1sGb84S5I-26" value="HTTP&lt;br&gt;response" style="text;html=1;strokeColor=none;fillColor=none;align=center;verticalAlign=middle;whiteSpace=wrap;rounded=0;" parent="1" vertex="1">
          <mxGeometry x="260" y="290" width="60" height="30" as="geometry" />
        </mxCell>
        <mxCell id="_YE2wtCMG6X1sGb84S5I-28" value="HTTP&lt;br&gt;requests" style="text;html=1;strokeColor=none;fillColor=none;align=center;verticalAlign=middle;whiteSpace=wrap;rounded=0;" parent="1" vertex="1">
          <mxGeometry x="380" y="290" width="60" height="30" as="geometry" />
        </mxCell>
        <mxCell id="_YE2wtCMG6X1sGb84S5I-30" value="HTTP&lt;br&gt;response" style="text;html=1;strokeColor=none;fillColor=none;align=center;verticalAlign=middle;whiteSpace=wrap;rounded=0;" parent="1" vertex="1">
          <mxGeometry x="330" y="300" width="60" height="30" as="geometry" />
        </mxCell>
      </root>
    </mxGraphModel>
  </diagram>
</mxfile>
